Coordinates
version=1
nRows=24
nColumns=24
inDegrees=yes

Units are S.I. units (second, meters, Newtons, ...)
Angles are in degrees.

endheader
time	pelvis_tilt	pelvis_list	pelvis_rotation	pelvis_tx	pelvis_ty	pelvis_tz	hip_flexion_r	hip_adduction_r	hip_rotation_r	knee_angle_r	ankle_angle_r	subtalar_angle_r	mtp_angle_r	hip_flexion_l	hip_adduction_l	hip_rotation_l	knee_angle_l	ankle_angle_l	subtalar_angle_l	mtp_angle_l	lumbar_extension	lumbar_bending	lumbar_rotation
      3.88000000	    -17.71871465	     -3.98326711	      0.86219775	     -2.05141018	     -0.04371384	     -0.36596818	     44.92352149	      3.17974358	    -17.05536390	    -14.03528461	     -1.77385981	     -2.04487507	     20.25906531	     -1.90781439	     -4.13197860	     -7.64211641	    -16.59338463	      7.23967963	     11.53531007	      8.66262111	     20.94804599	      1.22024811	    -19.58595227
      3.88500000	    -17.88322414	     -4.16800327	      0.85820170	     -2.04316378	     -0.04498537	     -0.36540179	     45.21729692	      3.38175196	    -16.68966630	    -14.89953908	     -2.57757125	     -3.30259710	     20.22983879	     -1.87459073	     -4.46810044	     -7.47607338	    -17.32775008	      6.66315805	     11.70829622	      8.68941995	     21.26787860	      1.40469511	    -19.74894385
      3.89000000	    -17.97439720	     -4.37595435	      0.71652544	     -2.03479745	     -0.04616864	     -0.36460271	     45.42316117	      3.74406279	    -16.07872192	    -15.76272213	     -3.50480758	     -4.81497404	     20.14436945	     -1.92712194	     -4.86872745	     -7.70573972	    -18.08303032	      5.98856425	     12.10783977	      8.93912718	     21.51854659	      1.65914551	    -19.78194437
      3.89500000	    -18.04562610	     -4.66208812	      0.62387058	     -2.02641553	     -0.04725574	     -0.36386344	     45.61083826	      4.14648223	    -15.51321705	    -16.66139303	     -4.48692816	     -6.40840353	     19.89599416	     -1.95883067	     -5.35794673	     -7.83019587	    -18.87851149	      5.23351507	     12.45465560	      9.35718763	     21.75398230	      1.97388101	    -19.90050215
      3.90000000	    -18.13138680	     -4.96063456	      0.50091178	     -2.01805164	     -0.04829886	     -0.36304925	     45.83506602	      4.59754894	    -14.85988413	    -17.61838895	     -5.47911777	     -8.07396742	     19.38365151	     -1.94283123	     -5.87451083	     -7.99197566	    -19.71072757	      4.35955089	     12.81155358	     10.00954355	     21.99924382	      2.30868030	    -19.96348675
      3.90500000	    -18.23416365	     -5.27555067	      0.36416544	     -2.00970494	     -0.04931300	     -0.36221798	     46.10261223	      5.08458367	    -14.13023914	    -18.65049427	     -6.39718609	     -9.76182385	     18.57521068	     -1.86401887	     -6.41717751	     -8.19386971	    -20.60117455	      3.37958722	     13.11838127	     10.79209587	     22.25855964	      2.66268457	    -20.07575240
      3.91000000	    -18.28179696	     -5.61055172	      0.28693989	     -2.00138770	     -0.05018147	     -0.36138994	     46.33342250	      5.56814679	    -13.38691859	    -19.79859844	     -7.06478010	    -11.24363105	     16.63242346	     -1.79695103	     -6.99433062	     -8.33150562	    -21.47291556	      2.12300976	     13.24292524	     12.41553079	     22.45529649	      3.00233491	    -20.27326838
      3.91500000	    -18.43465184	     -5.94857785	      0.11856449	     -1.99305084	     -0.05116099	     -0.36050378	     46.68028207	      6.11724557	    -12.57808023	    -20.92871735	     -7.68478509	    -12.86675444	     15.76747606	     -1.56034120	     -7.58140915	     -8.56479861	    -22.53734116	      0.98966282	     13.54263513	     12.93353872	     22.76638889	      3.38500356	    -20.38681201
      3.92000000	    -18.46584741	     -6.27489850	      0.00593821	     -1.98481394	     -0.05190188	     -0.35958733	     46.93231061	      6.63815878	    -11.84851335	    -22.21993039	     -7.97102768	    -14.06315232	     13.09071749	     -1.41842134	     -8.16774474	     -8.70667476	    -23.50807784	     -0.54708266	     13.58303982	     14.82769814	     22.92913742	      3.72338067	    -20.52734667
      3.92500000	    -18.61297888	     -6.62506111	     -0.16380578	     -1.97650167	     -0.05276637	     -0.35864860	     47.26752688	      7.21153135	    -11.11828405	    -23.40776861	     -8.18591760	    -15.40143798	     11.99694089	     -1.08331422	     -8.79422297	     -8.91971110	    -24.68508634	     -1.95892603	     13.85059735	     15.54886337	     23.22996066	      4.10604278	    -20.67724160
      3.93000000	    -18.58701516	     -6.95798541	     -0.24912002	     -1.96840359	     -0.05334013	     -0.35781311	     47.44953826	      7.70835582	    -10.58475352	    -24.73731330	     -8.02455557	    -16.15586252	      9.10249030	     -0.86806328	     -9.38505165	     -8.97508255	    -25.77822743	     -3.79355004	     13.60307247	     17.76340937	     23.30601239	      4.44678461	    -20.83850380
      3.93500000	    -18.67844870	     -7.28799179	     -0.37701463	     -1.96035176	     -0.05406177	     -0.35686537	     47.71111835	      8.22859872	    -10.05756699	    -25.93985209	     -7.84275567	    -17.04593387	      7.67079981	     -0.42772608	    -10.01592135	     -9.12367942	    -27.10398135	     -5.48548571	     13.75387665	     18.95618718	     23.50195151	      4.78414544	    -21.00416528
      3.94000000	    -18.65825407	     -7.63375914	     -0.43693127	     -1.95226411	     -0.05453111	     -0.35611613	     47.80806911	      8.69173238	     -9.76516531	    -27.12482878	     -7.36300882	    -17.54619687	      5.57651209	     -0.08049115	    -10.61047094	     -9.05166134	    -28.32738353	     -7.52694082	     13.36985684	     20.90504401	     23.58857816	      5.12777235	    -21.23120761
      3.94500000	    -18.63631265	     -7.94354240	     -0.42513884	     -1.94446481	     -0.05498568	     -0.35537811	     47.87481027	      9.07087204	     -9.53260104	    -28.21496404	     -6.84484844	    -18.07019538	      4.26787030	      0.41631274	    -11.17748516	     -8.84791079	    -29.75042979	     -9.48878779	     13.18689745	     22.27388373	     23.63502791	      5.39156313	    -21.54183789
      3.95000000	    -18.57146988	     -8.25693876	     -0.48156362	     -1.93656758	     -0.05531477	     -0.35472762	     47.82405733	      9.46511177	     -9.42939423	    -29.22599038	     -6.09935357	    -18.17936779	      2.88242944	      0.85591083	    -11.71162898	     -8.68420762	    -31.11038010	    -11.64238090	     12.64006667	     23.94475417	     23.63904827	      5.71580130	    -21.74681528
      3.95500000	    -18.50608232	     -8.56471163	     -0.42645486	     -1.92897074	     -0.05560568	     -0.35415477	     47.73571903	      9.76680202	     -9.45181555	    -30.11642880	     -5.40118283	    -18.40666928	      2.19301118	      1.46257906	    -12.23102240	     -8.31937098	    -32.67280314	    -13.65600797	     12.22398035	     24.91988611	     23.61010874	      5.97538915	    -22.09010507
      3.96000000	    -18.45795996	     -8.85743515	     -0.49922447	     -1.92127572	     -0.05584774	     -0.35350230	     47.58690769	     10.13355706	     -9.45797816	    -30.91355903	     -4.55682720	    -18.33723954	      1.39566011	      2.05394323	    -12.71833930	     -8.06839738	    -34.16359832	    -15.77362177	     11.57968597	     26.28807097	     23.60440346	      6.28673999	    -22.25262349
      3.96500000	    -18.36103588	     -9.16504168	     -0.44094261	     -1.91386510	     -0.05597068	     -0.35302206	     47.34585187	     10.39720970	     -9.67524599	    -31.57862683	     -3.79935130	    -18.38992583	      1.27055605	      2.75441264	    -13.18839613	     -7.60555928	    -35.84751067	    -17.65585409	     11.01592556	     26.62552304	     23.51299600	      6.56011217	    -22.54801074
      3.97000000	    -18.32701333	     -9.44968345	     -0.40320428	     -1.90654781	     -0.05610494	     -0.35255363	     47.12065801	     10.63725976	     -9.90023690	    -32.16672171	     -2.94275548	    -18.20971913	      1.15782959	      3.57326244	    -13.61121916	     -7.12076853	    -37.54922426	    -19.45974457	     10.29298333	     27.19945695	     23.47825989	      6.82335648	    -22.83420741
      3.97500000	    -18.31126683	     -9.74222603	     -0.40806626	     -1.89931928	     -0.05619650	     -0.35204218	     46.85173152	     10.92141580	    -10.07351079	    -32.63897091	     -2.09122060	    -17.96021306	      1.11540989	      4.44572560	    -14.02385051	     -6.64722124	    -39.27566497	    -21.08814608	      9.45759624	     27.76535742	     23.44676418	      7.10847520	    -23.07473946
      3.98000000	    -18.24563537	    -10.06431962	     -0.48177134	     -1.89209907	     -0.05617162	     -0.35145383	     46.46107786	     11.28854662	    -10.28125427	    -32.97808086	     -1.32624410	    -17.83535358	      1.22516234	      5.27647970	    -14.47466506	     -6.30902744	    -41.05020675	    -22.46445292	      8.58897854	     27.76372020	     23.35358928	      7.45953825	    -23.19444292
      3.98500000	    -18.26466497	    -10.31877609	     -0.38666796	     -1.88516520	     -0.05610500	     -0.35114485	     46.15743233	     11.41940096	    -10.68186009	    -33.29749324	     -0.48013714	    -17.41621894	      1.46016592	      6.34376841	    -14.76698386	     -5.62658756	    -42.86280877	    -23.65294301	      7.65446371	     27.86946565	     23.33341160	      7.67647251	    -23.48149924
      3.99000000	    -18.29471704	    -10.58738323	     -0.38696146	     -1.87823966	     -0.05599433	     -0.35071348	     45.79971058	     11.65570158	    -10.96916416	    -33.49698508	      0.30010953	    -17.07515510	      1.73907901	      7.41148431	    -15.07851789	     -5.09104615	    -44.67885499	    -24.53877353	      6.62361063	     27.77934690	     23.31643926	      7.94753204	    -23.65592988
      3.99500000	    -18.34609466	    -10.83984430	     -0.38396504	     -1.87140177	     -0.05581850	     -0.35030373	     45.42565975	     11.87327921	    -11.26480993	    -33.61959933	      1.05329610	    -16.70951425	      2.09014410	      8.53883734	    -15.34939570	     -4.54863194	    -46.49956194	    -25.13349529	      5.54999833	     27.49557267	     23.31366967	      8.20149714	    -23.81253331
